<?xml version="1.0" encoding="UTF-8"?>
<svg width="512px" height="512px" viewBox="0 0 512 512" version="1.1" xmlns="http://www.w3.org/2000/svg" xmlns:xlink="http://www.w3.org/1999/xlink">
    <title>favicon</title>
    <defs>
        <path d="M0,0 L512,0 L512,512 L0,512 L0,0 Z" id="path-1"></path>
    </defs>
    <g id="favicon" stroke="none" fill="none" xlink:href="#path-1" fill-rule="evenodd">
        <use fill="#202020" xlink:href="#path-1"></use>
        <path d="M39,345.200113 L39,165.799887 C39,161.119955 42.1251883,158 46.8129707,158 L174.947713,158 C230.81106,158 243.312218,188.029767 243.312218,218.449729 C243.312218,230.929952 238.233584,243.409771 227.685872,253.550028 C241.749623,264.46987 248,278.51007 248,292.549867 C248,322.96983 235.108396,353 177.68205,353 L46.8129707,353 C42.1251883,353 39,349.880045 39,345.200113 Z M101.504575,232.099733 L162.056109,232.099733 C173.775565,232.099733 178.854198,229.369975 178.854198,222.350077 C178.854198,215.329775 173.775565,212.600016 162.056109,212.600016 L101.504575,212.600016 L101.504575,232.099733 Z M101.504575,298.399984 L165.962594,298.399984 C178.463347,298.399984 183.54198,295.669821 183.54198,288.649923 C183.54198,281.630025 178.463347,278.899863 165.962594,278.899863 L101.504575,278.899863 L101.504575,298.399984 Z M278.792482,158 L325.547372,158 C330.224475,158 333.339854,161.119955 333.339854,165.799887 L333.339854,186.079997 C333.339854,209.480061 346.588283,216.49996 366.85035,216.49996 L411.656111,216.49996 L411.656111,165.799887 C411.656111,161.119955 414.775525,158 419.448593,158 L466.207518,158 C470.880586,158 474,161.119955 474,165.799887 L474,255.499798 C474,305.419882 445.554012,353 388.278666,353 L289.312937,353 C284.63987,353 281.520456,349.880045 281.520456,345.200113 L281.520456,306.199871 C281.520456,301.519939 284.63987,298.399984 289.312937,298.399984 L370.744573,298.399984 C394.513458,298.399984 409.711017,291.380086 409.711017,271.099976 L348.928853,271.099976 C297.496859,271.099976 271,246.529726 271,196.610046 L271,165.799887 C271,161.119955 274.119414,158 278.792482,158 Z" id="bikeyard" fill="#FFFFFF"></path>
        <g id="Group" stroke-width="1" transform="translate(0, 472)">
            <polygon id="blue" fill="#0588F0" points="256 40 512 40 512 0 256 0"></polygon>
            <polygon id="amber" fill="#FFBA18" points="90 40 256 40 256 -3.46944695e-17 90 6.9388939e-17"></polygon>
            <polygon id="red" fill="#DC3E42" points="-3.19748774e-13 40 90 40 90 1.73472348e-17 -3.19744231e-13 1.38777878e-16"></polygon>
        </g>
    </g>
</svg>