<?xml version="1.0" encoding="UTF-8"?>
<svg width="166px" height="24px" viewBox="0 0 166 24" version="1.1" xmlns="http://www.w3.org/2000/svg" xmlns:xlink="http://www.w3.org/1999/xlink">
    <title>light</title>
    <g id="mintlify" stroke="none" stroke-width="1" fill="none" fill-rule="evenodd">
        <g id="light">
            <path d="M154.305931,0 C160.771157,0 166,5.37371662 166,11.9715949 L166,12.0667645 C166,18.6434063 160.787808,24 154.343347,24 L0,24 L0,0 L154.305931,0 Z M154.305931,1.41176471 L1.41880342,1.41176471 L1.41880342,22.5882353 L154.343347,22.5882353 C159.993793,22.5882353 164.581197,17.8737253 164.581197,12.0667645 L164.581197,11.9715949 C164.581197,6.14345426 159.977197,1.41176471 154.305931,1.41176471 Z" id="Combined-Shape" fill="#000000" fill-rule="nonzero"></path>
            <path d="M30.031339,18.7105967 L30.031339,5.2894033 C30.031339,4.93929073 30.2688536,4.70588235 30.6251254,4.70588235 L40.3633763,4.70588235 C44.6089953,4.70588235 45.5590843,6.95245312 45.5590843,9.22821505 C45.5590843,10.1618788 45.1731078,11.0955123 44.3714807,11.8541198 C45.440327,12.6710491 45.9153562,13.721417 45.9153562,14.7717547 C45.9153562,17.0475167 44.9355932,19.2941176 40.5711862,19.2941176 L30.6251254,19.2941176 C30.2688536,19.2941176 30.031339,19.0607093 30.031339,18.7105967 Z M34.7816918,10.2493918 L39.3836134,10.2493918 C40.274293,10.2493918 40.6602695,10.0451746 40.6602695,9.52000574 C40.6602695,8.99480667 40.274293,8.79058944 39.3836134,8.79058944 L34.7816918,8.79058944 L34.7816918,10.2493918 Z M34.7816918,15.2094106 L39.6805066,15.2094106 C40.6305648,15.2094106 41.0165414,15.0051631 41.0165414,14.4799943 C41.0165414,13.9548254 40.6305648,13.750578 39.6805066,13.750578 L34.7816918,13.750578 L34.7816918,15.2094106 Z M47.5482842,18.7105967 L47.5482842,5.2894033 C47.5482842,4.93929073 47.7858295,4.70588235 48.1421013,4.70588235 L51.7048813,4.70588235 C52.0611531,4.70588235 52.2986677,4.93929073 52.2986677,5.2894033 L52.2986677,18.7105967 C52.2986677,19.0607093 52.0611531,19.2941176 51.7048813,19.2941176 L48.1421013,19.2941176 C47.7858295,19.2941176 47.5482842,19.0607093 47.5482842,18.7105967 Z M54.8223061,18.7105967 L54.8223061,5.2894033 C54.8223061,4.93929073 55.0598206,4.70588235 55.4160925,4.70588235 L58.9788725,4.70588235 C59.3352673,4.70588235 59.5726589,4.93929073 59.5726589,5.2894033 L59.5726589,9.95763135 L63.0465092,9.95763135 L65.8075699,5.2894033 C65.9856136,4.99764283 66.1043094,4.70588235 66.5498798,4.70588235 L70.4093377,4.70588235 C70.8549082,4.70588235 71.0329519,4.99764283 70.8549082,5.2894033 L66.9059672,11.9999849 L70.8549082,18.7105967 C71.0329519,19.0023572 70.8549082,19.2941176 70.4093377,19.2941176 L66.5498798,19.2941176 C66.1043094,19.2941176 65.9856136,19.0023572 65.8075699,18.7105967 L63.0465092,14.0423384 L59.5726589,14.0423384 L59.5726589,18.7105967 C59.5726589,19.0607093 59.3352673,19.2941176 58.9788725,19.2941176 L55.4160925,19.2941176 C55.0598206,19.2941176 54.8223061,19.0607093 54.8223061,18.7105967 Z M86.234007,19.2941176 L78.2177367,19.2941176 C73.8533604,19.2941176 71.6860862,15.7345794 71.6860862,11.9999849 C71.6860862,8.26539037 73.8533604,4.70588235 78.2177367,4.70588235 L85.9372675,4.70588235 C86.2933549,4.70588235 86.5310539,4.93929073 86.5310539,5.2894033 L86.5310539,8.20703827 C86.5310539,8.55718106 86.2933549,8.79058944 85.9372675,8.79058944 L79.7023565,8.79058944 C78.6334794,8.79058944 77.5350822,9.19905411 76.970816,10.2493918 L85.0464342,10.2493918 C85.402829,10.2493918 85.6402206,10.4828304 85.6402206,10.832943 L85.6402206,13.167057 C85.6402206,13.5171696 85.402829,13.750578 85.0464342,13.750578 L76.970816,13.750578 C77.5350822,14.8009459 78.6334794,15.2094106 79.7023565,15.2094106 L86.234007,15.2094106 C86.5904018,15.2094106 86.8277934,15.4428189 86.8277934,15.7929315 L86.8277934,18.7105967 C86.8277934,19.0607093 86.5904018,19.2941176 86.234007,19.2941176 Z M94.6128331,4.70588235 L98.1755516,4.70588235 C98.5319464,4.70588235 98.769338,4.93929073 98.769338,5.2894033 L98.769338,6.80658799 C98.769338,8.55718106 99.7788671,9.08234992 101.322835,9.08234992 L104.73703,9.08234992 L104.73703,5.2894033 C104.73703,4.93929073 104.974729,4.70588235 105.330816,4.70588235 L108.893842,4.70588235 C109.24993,4.70588235 109.487629,4.93929073 109.487629,5.2894033 L109.487629,11.9999849 C109.487629,15.7345794 107.320047,19.2941176 102.955671,19.2941176 L95.4144909,19.2941176 C95.0584035,19.2941176 94.8207045,19.0607093 94.8207045,18.7105967 L94.8207045,15.7929315 C94.8207045,15.4428189 95.0584035,15.2094106 95.4144909,15.2094106 L101.619574,15.2094106 C103.430761,15.2094106 104.588814,14.6842417 104.588814,13.167057 L99.9572183,13.167057 C96.038105,13.167057 94.0190467,11.3289207 94.0190467,7.59435639 L94.0190467,5.2894033 C94.0190467,4.93929073 94.2567458,4.70588235 94.6128331,4.70588235 Z M108.59987,18.7689488 L114.804954,5.23105121 C114.953477,4.91009958 115.280044,4.70588235 115.636132,4.70588235 L119.64442,4.70588235 C120.000508,4.70588235 120.327075,4.91009958 120.475598,5.23105121 L126.680682,18.7689488 C126.829205,19.0898702 126.680682,19.2941176 126.324594,19.2941176 L122.316306,19.2941176 C121.960218,19.2941176 121.633651,19.0898702 121.485128,18.7689488 L117.65519,10.366096 L113.795424,18.7689488 C113.646901,19.0898702 113.320334,19.2941176 112.964246,19.2941176 L108.955958,19.2941176 C108.59987,19.2941176 108.451347,19.0898702 108.59987,18.7689488 Z M131.342105,19.2941176 L127.779387,19.2941176 C127.422992,19.2941176 127.1856,19.0607093 127.1856,18.7105967 L127.1856,5.2894033 C127.1856,4.93929073 127.422992,4.70588235 127.779387,4.70588235 L136.923882,4.70588235 C141.169562,4.70588235 142.416483,7.09834847 142.416483,9.54916668 C142.416483,11.3289207 141.733521,13.4296565 139.655115,14.3632901 L142.208612,18.7105967 C142.386655,19.0023572 142.208612,19.2941176 141.763349,19.2941176 L137.903583,19.2941176 C137.45832,19.2941176 137.339317,19.0023572 137.161273,18.7105967 L134.934651,14.9176501 L131.935891,14.9176501 L131.935891,18.7105967 C131.935891,19.0607093 131.6985,19.2941176 131.342105,19.2941176 Z M131.935891,10.832943 L135.647133,10.832943 C136.834706,10.832943 137.517668,10.5411825 137.517668,9.81176622 C137.517668,9.08234992 136.834706,8.79058944 135.647133,8.79058944 L131.935891,8.79058944 L131.935891,10.832943 Z M144.346366,18.7105967 L144.346366,5.2894033 C144.346366,4.93929073 144.583757,4.70588235 144.940152,4.70588235 L153.995472,4.70588235 C158.359848,4.70588235 160.527122,8.26539037 160.527122,11.9999849 C160.527122,15.7345794 158.359848,19.2941176 153.995472,19.2941176 L144.940152,19.2941176 C144.583757,19.2941176 144.346366,19.0607093 144.346366,18.7105967 Z M149.096657,15.2094106 L152.510852,15.2094106 C154.05482,15.2094106 155.628308,14.3632901 155.628308,11.9999849 C155.628308,9.63670993 154.05482,8.79058944 152.510852,8.79058944 L149.096657,8.79058944 L149.096657,15.2094106 Z" id="bikeyard" fill="#000000"></path>
            <g id="colours" transform="translate(5.4387, 4.7059)">
                <path d="M12.5321937,14.5882353 L20.1002849,14.5882353 C20.2305675,14.5882353 20.3361823,14.4826204 20.3361823,14.3523379 L20.3361823,0.235897436 C20.3361823,0.10561488 20.2305675,-8.32667268e-17 20.1002849,-5.55111512e-17 L12.5321937,2.77555756e-17 C12.4019112,5.55111512e-17 12.2962963,0.10561488 12.2962963,0.235897436 L12.2962963,14.3523379 C12.2962963,14.4826204 12.4019112,14.5882353 12.5321937,14.5882353 Z" id="blue" fill="#0588F0"></path>
                <path d="M5.2017094,14.5882353 L9.93219373,14.5882353 C10.0624763,14.5882353 10.1680912,14.4826204 10.1680912,14.3523379 L10.1680912,0.235897436 C10.1680912,0.10561488 10.0624763,-8.32667268e-17 9.93219373,-5.55111512e-17 L5.2017094,2.77555756e-17 C5.07142685,5.55111512e-17 4.96581197,0.10561488 4.96581197,0.235897436 L4.96581197,14.3523379 C4.96581197,14.4826204 5.07142685,14.5882353 5.2017094,14.5882353 Z" id="amber" fill="#FFBA18"></path>
                <path d="M0.235897436,14.5882353 L2.6017094,14.5882353 C2.73199196,14.5882353 2.83760684,14.4826204 2.83760684,14.3523379 L2.83760684,0.235897436 C2.83760684,0.10561488 2.73199196,-1.11022302e-16 2.6017094,-8.32667268e-17 L0.235897436,2.77555756e-17 C0.10561488,5.55111512e-17 1.66533454e-16,0.10561488 1.94289029e-16,0.235897436 L2.77555756e-17,14.3523379 C1.0269563e-15,14.4826204 0.10561488,14.5882353 0.235897436,14.5882353 Z" id="red" fill="#DC3E42"></path>
            </g>
        </g>
    </g>
</svg>